<svg width="480" height="480" viewBox="0 0 480 480" fill="none" xmlns="http://www.w3.org/2000/svg">
<path d="M282.128 129.197C266.261 134.797 254.128 143.664 245.728 155.797C237.561 167.697 233.478 182.164 233.478 199.197C233.478 206.664 234.295 213.547 235.928 219.847C237.561 225.914 239.895 230.931 242.928 234.897C227.995 234.897 216.911 231.864 209.678 225.797C202.678 219.497 199.178 209.931 199.178 197.097C199.178 180.764 203.961 165.597 213.528 151.597C223.095 137.364 236.045 126.047 252.378 117.647C268.711 109.247 286.445 105.047 305.578 105.047C310.945 105.047 315.611 105.397 319.578 106.097C323.545 106.797 328.095 108.081 333.228 109.947L375.228 297.197L414.428 107.147H448.378L391.328 368.947H343.028L302.428 195.347L262.528 368.947H229.278L282.128 129.197Z" fill="#A3863D"/>
<path d="M195.65 437.5C185.15 437.5 174.767 434.467 164.5 428.4C154.467 422.567 141.633 413.467 126 401.1C114.333 391.767 104.3 384.183 95.9 378.35C87.7333 372.75 78.75 367.967 68.95 364C59.3833 360.033 49.5833 358.05 39.55 358.05C36.05 358.05 33.3667 358.167 31.5 358.4L83.65 115.85C68.0167 122.15 55.8833 131.833 47.25 144.9C38.85 157.733 34.65 173.483 34.65 192.15C34.65 200.783 35.4667 206.85 37.1 210.35C38.7333 213.617 39.55 215.483 39.55 215.95C26.95 215.95 17.5 213.383 11.2 208.25C5.13333 202.883 2.1 194.133 2.1 182C2.1 167.067 8.16667 152.6 20.3 138.6C32.6667 124.367 48.4167 112.933 67.55 104.3C86.6833 95.4333 105.817 91 124.95 91C128.217 91 132.883 91.2333 138.95 91.7L85.05 343C91.5833 344.633 98.2333 346.967 105 350C112 353.267 120.4 357.583 130.2 362.95C145.367 371.117 158.317 377.3 169.05 381.5C179.783 385.933 190.983 388.15 202.65 388.15C213.15 388.15 222.95 386.283 232.05 382.55C230.183 399.583 225.983 413 219.45 422.8C213.15 432.6 205.217 437.5 195.65 437.5Z" fill="#A3863D"/>
</svg>
